<svg version="1" xmlns="http://www.w3.org/2000/svg" width="666.667" height="666.667" viewBox="0 0 500.000000 500.000000"><path d="M263.5 88c.3 2.5.8 7 1 10 .3 3 .7 7.5 1 10 .6 6.6.6 41.2-.1 50.5l-.6 8.1 3.7 1.7c8.2 3.9 27.7 17.8 39.5 28.2 12.2 10.7 33.4 33.3 44.8 47.9 9.4 12 9.5 12 7.6 5.6-8-28-19.9-51.9-51.4-103.9-9.2-15.1-34.2-49.9-41.5-57.8l-4.5-4.8.5 4.5z"/><path d="M181.9 154.3c5.7 7.6 10.7 16.8 15.6 28.7 3.8 9.2 9.7 27.3 10.9 33.4.3 1.2 1.1 5.2 2 9.1 4 18.9 4.2 37.2.4 39.6-.7.5-7.1 2.7-14.3 5.1-7.1 2.3-14.1 4.8-15.5 5.5-1.4.7-2.9 1.3-3.3 1.3-.5 0-2.3.6-4 1.4-1.8.7-7.2 3.1-12.2 5.1-31.2 13-69.8 35.2-90.2 51.9-1 .8-3.8 3.1-6.3 5.1-10.3 8.5-14.8 12.4-22.9 20.5-9.5 9.4-19 19.9-24.7 27.4C12.1 395.3 1 412.1 1 413.1c0 .5 4.4-2.6 9.8-6.8C41.7 382 82.9 362 127 349.8c11.5-3.1 39.9-9.6 45.5-10.3l5-.6-3.5 2.8c-12.2 9.8-26.1 21.6-25.8 21.8.2.2 6.2-1.2 13.3-3.1 7.2-1.9 14.2-3.6 15.7-3.9 1.6-.3 5.6-1.2 9-2 3.5-.8 7.8-1.7 9.6-2 1.8-.3 6.3-1.2 10-1.9 3.7-.8 12.8-2.4 20.2-3.6 7.4-1.2 14.6-2.3 15.9-2.5 1.4-.3 5.4-.7 9-1.1 3.6-.3 6.8-.8 7.2-.9 3.9-2.5 79.5-2.5 87.2 0 .6.2 3.7.6 6.7.9 8 .8 13.9 1.6 19.5 2.6 2.8.5 6.6 1.2 8.5 1.5 2.9.5 9.8 1.9 20 4 14.9 3.1 40.3 9.9 63.4 17 16 4.8 22.8 5.6 28.8 3 5.2-2.1 7.3-5.9 7.2-13 0-10.1-6.1-19-22.4-32.6-29.1-24.4-74.1-48.3-111-59.1-2.4-.7-7.5-5-16.5-13.8-14.6-14.3-27.4-25.9-35.5-32-1.8-1.4-5.2-4-7.4-5.9-5.1-4.2-25.2-18.4-32.6-23.1-3-1.9-5.6-3.8-5.8-4.2-.2-.5-.8-.8-1.3-.8s-2.6-1.1-4.7-2.3c-2-1.3-6.8-4.1-10.7-6.2-3.8-2.1-8.9-4.8-11.2-6.1-13.1-7.2-48.1-20.6-59.1-22.7l-3.2-.7 3.9 5.3z"/></svg>